<?xml version="1.0" encoding="UTF-8"?>
<svg width="2024px" height="53px" viewBox="0 0 2024 53" version="1.1" xmlns="http://www.w3.org/2000/svg" xmlns:xlink="http://www.w3.org/1999/xlink">
    <!-- Generator: Sketch 52.2 (67145) - http://www.bohemiancoding.com/sketch -->
    <title>Combined Shape</title>
    <desc>Created with Sketch.</desc>
    <defs>
        <linearGradient x1="-1.57767179%" y1="100%" x2="100%" y2="100%" id="linearGradient-1">
            <stop stop-color="#2F59FF" stop-opacity="0.4" offset="0%"></stop>
            <stop stop-color="#2F59FF" offset="50.9596279%"></stop>
            <stop stop-color="#2F59FF" stop-opacity="0.390908062" offset="100%"></stop>
        </linearGradient>
    </defs>
    <g id="Page-1" stroke="none" stroke-width="1" fill="none" fill-rule="evenodd">
        <g id="Artboard" transform="translate(-213.000000, -427.000000)" fill="url(#linearGradient-1)" fill-rule="nonzero">
            <path d="M1414,467.658583 L1382.87682,467.658583 L1367.60548,475.19537 L1361.12027,475.19537 L1351.91772,480 L1101.53321,480 L1090.85899,474.374925 L1083.23155,474.374925 L1068.59262,467.658583 L1045,467.658583 L1045,469 L909,469 L909,467.658583 L519.07697,467.658583 L487.307228,457.008475 L213,457.008475 L213,455 L488.424745,455 L520.194487,465.650108 L909,465.650108 L909,464 L945.686435,464 L929.776227,456.022168 L906.978283,456.022168 L893,449.742243 L894.253831,449 L907.693119,455.037776 L930.551235,455.037776 L948.424618,464 L1045,464 L1045,465.650108 L1070.02905,465.650108 L1084.66798,472.36645 L1092.44822,472.36645 L1103.12244,477.991525 L1350.33891,477.991525 L1359.54146,473.186895 L1366.08927,473.186895 L1381.36062,465.650108 L1414,465.650108 L1414,464 L1504.57538,464 L1522.44877,455.037776 L1545.30688,455.037776 L1558.74617,449 L1560,449.742243 L1546.02172,456.022168 L1523.22377,456.022168 L1507.31357,464 L1550,464 L1550,465.650108 L1941.1572,465.650108 L1973.70229,455 L2237,455 L2237,457.008475 L1974.79725,457.008475 L1942.25216,467.658583 L1550,467.658583 L1550,469 L1414,469 L1414,467.658583 Z M1941.70468,465.650108 L1941.1572,465.650108 L1940.69261,465.802143 L1941.70468,465.650108 Z M1366.84738,473.186895 L1366.08927,473.186895 L1365.53695,473.459482 L1366.84738,473.186895 Z M906.92686,452.036918 L859,427.732821 L860.327054,427 L907.697505,451.021937 L930.61125,451.021937 L944,457.236983 L942.735179,458 L929.889219,452.036918 L906.92686,452.036918 Z M907.962616,455.158851 L907.693119,455.037776 L907.335701,455.037776 L907.962616,455.158851 Z M1543.68782,451.021937 L1543.3025,451.021937 L1543.02429,451.163017 L1543.68782,451.021937 Z M1590.67295,427 L1592,427.732821 L1544.07314,452.036918 L1521.11078,452.036918 L1508.26482,458 L1507,457.236983 L1520.38875,451.021937 L1543.3025,451.021937 L1590.67295,427 Z" id="Combined-Shape"></path>
        </g>
    </g>
</svg>